<mxfile host="Electron" modified="2023-11-19T13:33:56.447Z" agent="Mozilla/5.0 (Windows NT 10.0; Win64; x64) AppleWebKit/537.36 (KHTML, like Gecko) draw.io/22.1.2 Chrome/114.0.5735.289 Electron/25.9.4 Safari/537.36" etag="pfKrgLOj0UXC0czOv-mv" version="22.1.2" type="device">
  <diagram name="Page-1" id="rzCygaIb3HCRlPclYxBd">
    <mxGraphModel dx="2550" dy="1035" grid="0" gridSize="10" guides="1" tooltips="1" connect="1" arrows="1" fold="1" page="0" pageScale="1" pageWidth="827" pageHeight="1169" math="0" shadow="0">
      <root>
        <mxCell id="0" />
        <mxCell id="1" parent="0" />
        <mxCell id="dRNGFHnPLD5edv40ZI6M-1" value="" style="rounded=0;whiteSpace=wrap;html=1;" vertex="1" parent="1">
          <mxGeometry x="-101" y="59" width="924" height="527" as="geometry" />
        </mxCell>
        <mxCell id="dRNGFHnPLD5edv40ZI6M-2" value="" style="rounded=0;whiteSpace=wrap;html=1;" vertex="1" parent="1">
          <mxGeometry y="118" width="178" height="413" as="geometry" />
        </mxCell>
        <mxCell id="dRNGFHnPLD5edv40ZI6M-49" style="edgeStyle=orthogonalEdgeStyle;rounded=0;orthogonalLoop=1;jettySize=auto;html=1;entryX=0;entryY=0.5;entryDx=0;entryDy=0;" edge="1" parent="1" source="dRNGFHnPLD5edv40ZI6M-5" target="dRNGFHnPLD5edv40ZI6M-11">
          <mxGeometry relative="1" as="geometry" />
        </mxCell>
        <mxCell id="dRNGFHnPLD5edv40ZI6M-50" style="edgeStyle=orthogonalEdgeStyle;rounded=0;orthogonalLoop=1;jettySize=auto;html=1;entryX=0;entryY=0.5;entryDx=0;entryDy=0;" edge="1" parent="1" source="dRNGFHnPLD5edv40ZI6M-5" target="dRNGFHnPLD5edv40ZI6M-13">
          <mxGeometry relative="1" as="geometry" />
        </mxCell>
        <mxCell id="dRNGFHnPLD5edv40ZI6M-51" style="edgeStyle=orthogonalEdgeStyle;rounded=0;orthogonalLoop=1;jettySize=auto;html=1;entryX=0;entryY=0.5;entryDx=0;entryDy=0;" edge="1" parent="1" source="dRNGFHnPLD5edv40ZI6M-5" target="dRNGFHnPLD5edv40ZI6M-12">
          <mxGeometry relative="1" as="geometry" />
        </mxCell>
        <mxCell id="dRNGFHnPLD5edv40ZI6M-5" value="&lt;font style=&quot;font-size: 26px;&quot;&gt;Browser&lt;/font&gt;" style="image;aspect=fixed;html=1;points=[];align=center;fontSize=12;image=img/lib/azure2/general/Browser.svg;" vertex="1" parent="1">
          <mxGeometry x="-494" y="236" width="151" height="120.8" as="geometry" />
        </mxCell>
        <mxCell id="dRNGFHnPLD5edv40ZI6M-6" value="&lt;font style=&quot;font-size: 32px;&quot;&gt;Server&lt;/font&gt;" style="rounded=0;whiteSpace=wrap;html=1;" vertex="1" parent="1">
          <mxGeometry x="-143" y="665" width="931" height="60" as="geometry" />
        </mxCell>
        <mxCell id="dRNGFHnPLD5edv40ZI6M-7" value="" style="endArrow=classic;html=1;rounded=0;" edge="1" parent="1">
          <mxGeometry width="50" height="50" relative="1" as="geometry">
            <mxPoint x="759" y="642" as="sourcePoint" />
            <mxPoint x="-126" y="642" as="targetPoint" />
          </mxGeometry>
        </mxCell>
        <mxCell id="dRNGFHnPLD5edv40ZI6M-8" value="&lt;font style=&quot;font-size: 26px;&quot;&gt;DB&lt;/font&gt;" style="shape=cylinder3;whiteSpace=wrap;html=1;boundedLbl=1;backgroundOutline=1;size=15;" vertex="1" parent="1">
          <mxGeometry x="949" y="232" width="144" height="181" as="geometry" />
        </mxCell>
        <mxCell id="dRNGFHnPLD5edv40ZI6M-10" value="&lt;font style=&quot;font-size: 26px;&quot;&gt;Response&lt;/font&gt;" style="text;html=1;strokeColor=none;fillColor=none;align=center;verticalAlign=middle;whiteSpace=wrap;rounded=0;" vertex="1" parent="1">
          <mxGeometry x="292.5" y="604" width="60" height="30" as="geometry" />
        </mxCell>
        <mxCell id="dRNGFHnPLD5edv40ZI6M-11" value="&lt;font style=&quot;font-size: 26px;&quot;&gt;Job&lt;/font&gt;" style="rounded=0;whiteSpace=wrap;html=1;" vertex="1" parent="1">
          <mxGeometry x="27" y="169" width="120" height="71" as="geometry" />
        </mxCell>
        <mxCell id="dRNGFHnPLD5edv40ZI6M-12" value="&lt;font style=&quot;font-size: 26px;&quot;&gt;Company&lt;/font&gt;" style="rounded=0;whiteSpace=wrap;html=1;" vertex="1" parent="1">
          <mxGeometry x="23" y="303" width="120" height="67" as="geometry" />
        </mxCell>
        <mxCell id="dRNGFHnPLD5edv40ZI6M-13" value="&lt;font style=&quot;font-size: 26px;&quot;&gt;Review&lt;/font&gt;" style="rounded=0;whiteSpace=wrap;html=1;" vertex="1" parent="1">
          <mxGeometry x="27" y="430" width="120" height="66" as="geometry" />
        </mxCell>
        <mxCell id="dRNGFHnPLD5edv40ZI6M-18" value="" style="rounded=0;whiteSpace=wrap;html=1;" vertex="1" parent="1">
          <mxGeometry x="281" y="113" width="178" height="413" as="geometry" />
        </mxCell>
        <mxCell id="dRNGFHnPLD5edv40ZI6M-22" value="" style="rounded=0;whiteSpace=wrap;html=1;" vertex="1" parent="1">
          <mxGeometry x="569" y="116" width="178" height="413" as="geometry" />
        </mxCell>
        <mxCell id="dRNGFHnPLD5edv40ZI6M-26" value="&lt;font style=&quot;font-size: 26px;&quot;&gt;Controller&lt;/font&gt;" style="text;html=1;strokeColor=none;fillColor=none;align=center;verticalAlign=middle;whiteSpace=wrap;rounded=0;" vertex="1" parent="1">
          <mxGeometry x="55" y="79" width="60" height="30" as="geometry" />
        </mxCell>
        <mxCell id="dRNGFHnPLD5edv40ZI6M-27" value="&lt;font style=&quot;font-size: 26px;&quot;&gt;Service&lt;/font&gt;" style="text;html=1;strokeColor=none;fillColor=none;align=center;verticalAlign=middle;whiteSpace=wrap;rounded=0;" vertex="1" parent="1">
          <mxGeometry x="340" y="79" width="60" height="30" as="geometry" />
        </mxCell>
        <mxCell id="dRNGFHnPLD5edv40ZI6M-28" value="&lt;font style=&quot;font-size: 26px;&quot;&gt;Repository&lt;/font&gt;" style="text;html=1;strokeColor=none;fillColor=none;align=center;verticalAlign=middle;whiteSpace=wrap;rounded=0;" vertex="1" parent="1">
          <mxGeometry x="624" y="79" width="60" height="30" as="geometry" />
        </mxCell>
        <mxCell id="dRNGFHnPLD5edv40ZI6M-39" style="edgeStyle=orthogonalEdgeStyle;rounded=0;orthogonalLoop=1;jettySize=auto;html=1;entryX=0;entryY=0.5;entryDx=0;entryDy=0;" edge="1" parent="1" source="dRNGFHnPLD5edv40ZI6M-29" target="dRNGFHnPLD5edv40ZI6M-32">
          <mxGeometry relative="1" as="geometry" />
        </mxCell>
        <mxCell id="dRNGFHnPLD5edv40ZI6M-29" value="&lt;font style=&quot;font-size: 26px;&quot;&gt;Job&lt;/font&gt;" style="rounded=0;whiteSpace=wrap;html=1;" vertex="1" parent="1">
          <mxGeometry x="315" y="169" width="120" height="71" as="geometry" />
        </mxCell>
        <mxCell id="dRNGFHnPLD5edv40ZI6M-40" style="edgeStyle=orthogonalEdgeStyle;rounded=0;orthogonalLoop=1;jettySize=auto;html=1;entryX=0;entryY=0.5;entryDx=0;entryDy=0;" edge="1" parent="1" source="dRNGFHnPLD5edv40ZI6M-30" target="dRNGFHnPLD5edv40ZI6M-33">
          <mxGeometry relative="1" as="geometry" />
        </mxCell>
        <mxCell id="dRNGFHnPLD5edv40ZI6M-30" value="&lt;font style=&quot;font-size: 26px;&quot;&gt;Company&lt;/font&gt;" style="rounded=0;whiteSpace=wrap;html=1;" vertex="1" parent="1">
          <mxGeometry x="311" y="303" width="120" height="67" as="geometry" />
        </mxCell>
        <mxCell id="dRNGFHnPLD5edv40ZI6M-41" style="edgeStyle=orthogonalEdgeStyle;rounded=0;orthogonalLoop=1;jettySize=auto;html=1;" edge="1" parent="1" source="dRNGFHnPLD5edv40ZI6M-31" target="dRNGFHnPLD5edv40ZI6M-34">
          <mxGeometry relative="1" as="geometry" />
        </mxCell>
        <mxCell id="dRNGFHnPLD5edv40ZI6M-31" value="&lt;font style=&quot;font-size: 26px;&quot;&gt;Review&lt;/font&gt;" style="rounded=0;whiteSpace=wrap;html=1;" vertex="1" parent="1">
          <mxGeometry x="315" y="430" width="120" height="66" as="geometry" />
        </mxCell>
        <mxCell id="dRNGFHnPLD5edv40ZI6M-32" value="&lt;font style=&quot;font-size: 26px;&quot;&gt;Job&lt;/font&gt;" style="rounded=0;whiteSpace=wrap;html=1;" vertex="1" parent="1">
          <mxGeometry x="589" y="169" width="120" height="71" as="geometry" />
        </mxCell>
        <mxCell id="dRNGFHnPLD5edv40ZI6M-33" value="&lt;font style=&quot;font-size: 26px;&quot;&gt;Company&lt;/font&gt;" style="rounded=0;whiteSpace=wrap;html=1;" vertex="1" parent="1">
          <mxGeometry x="585" y="303" width="120" height="67" as="geometry" />
        </mxCell>
        <mxCell id="dRNGFHnPLD5edv40ZI6M-34" value="&lt;font style=&quot;font-size: 26px;&quot;&gt;Review&lt;/font&gt;" style="rounded=0;whiteSpace=wrap;html=1;" vertex="1" parent="1">
          <mxGeometry x="589" y="430" width="120" height="66" as="geometry" />
        </mxCell>
        <mxCell id="dRNGFHnPLD5edv40ZI6M-52" value="" style="endArrow=classic;html=1;rounded=0;exitX=1;exitY=0.5;exitDx=0;exitDy=0;entryX=0;entryY=0.5;entryDx=0;entryDy=0;" edge="1" parent="1" source="dRNGFHnPLD5edv40ZI6M-11" target="dRNGFHnPLD5edv40ZI6M-29">
          <mxGeometry width="50" height="50" relative="1" as="geometry">
            <mxPoint x="277" y="66" as="sourcePoint" />
            <mxPoint x="327" y="16" as="targetPoint" />
          </mxGeometry>
        </mxCell>
        <mxCell id="dRNGFHnPLD5edv40ZI6M-53" value="" style="endArrow=classic;html=1;rounded=0;exitX=1;exitY=0.5;exitDx=0;exitDy=0;" edge="1" parent="1" source="dRNGFHnPLD5edv40ZI6M-12" target="dRNGFHnPLD5edv40ZI6M-30">
          <mxGeometry width="50" height="50" relative="1" as="geometry">
            <mxPoint x="157" y="215" as="sourcePoint" />
            <mxPoint x="325" y="215" as="targetPoint" />
          </mxGeometry>
        </mxCell>
        <mxCell id="dRNGFHnPLD5edv40ZI6M-54" value="" style="endArrow=classic;html=1;rounded=0;exitX=1;exitY=0.5;exitDx=0;exitDy=0;" edge="1" parent="1" source="dRNGFHnPLD5edv40ZI6M-13" target="dRNGFHnPLD5edv40ZI6M-31">
          <mxGeometry width="50" height="50" relative="1" as="geometry">
            <mxPoint x="167" y="225" as="sourcePoint" />
            <mxPoint x="335" y="225" as="targetPoint" />
          </mxGeometry>
        </mxCell>
        <mxCell id="dRNGFHnPLD5edv40ZI6M-55" style="edgeStyle=orthogonalEdgeStyle;rounded=0;orthogonalLoop=1;jettySize=auto;html=1;entryX=0;entryY=0.5;entryDx=0;entryDy=0;entryPerimeter=0;" edge="1" parent="1" source="dRNGFHnPLD5edv40ZI6M-22" target="dRNGFHnPLD5edv40ZI6M-8">
          <mxGeometry relative="1" as="geometry" />
        </mxCell>
      </root>
    </mxGraphModel>
  </diagram>
</mxfile>
